<mxfile host="app.diagrams.net" modified="2023-04-18T02:51:08.797Z" agent="Mozilla/5.0 (Windows NT 10.0; Win64; x64) AppleWebKit/537.36 (KHTML, like Gecko) Chrome/112.0.0.0 Safari/537.36" etag="oeL26yoFf7ee9UxfzRoU" version="21.1.8" type="device">
  <diagram name="第 1 页" id="FQvg7F29peAB76W_smux">
    <mxGraphModel dx="1434" dy="796" grid="1" gridSize="10" guides="1" tooltips="1" connect="1" arrows="1" fold="1" page="1" pageScale="1" pageWidth="827" pageHeight="1169" math="0" shadow="0">
      <root>
        <mxCell id="0" />
        <mxCell id="1" parent="0" />
        <mxCell id="UxVpJ3fF8vfEaiCqMQMJ-1" value="&lt;font style=&quot;font-size: 24px;&quot;&gt;products&lt;/font&gt;" style="rounded=0;whiteSpace=wrap;html=1;" vertex="1" parent="1">
          <mxGeometry x="160" y="240" width="190" height="100" as="geometry" />
        </mxCell>
        <mxCell id="UxVpJ3fF8vfEaiCqMQMJ-2" value="&lt;font style=&quot;font-size: 24px;&quot;&gt;pid&lt;/font&gt;" style="ellipse;whiteSpace=wrap;html=1;" vertex="1" parent="1">
          <mxGeometry x="30" y="180" width="120" height="80" as="geometry" />
        </mxCell>
        <mxCell id="UxVpJ3fF8vfEaiCqMQMJ-3" value="&lt;font style=&quot;font-size: 24px;&quot;&gt;pname&lt;/font&gt;" style="ellipse;whiteSpace=wrap;html=1;" vertex="1" parent="1">
          <mxGeometry x="210" y="70" width="120" height="80" as="geometry" />
        </mxCell>
        <mxCell id="UxVpJ3fF8vfEaiCqMQMJ-4" value="&lt;font style=&quot;font-size: 24px;&quot;&gt;price&lt;/font&gt;" style="ellipse;whiteSpace=wrap;html=1;" vertex="1" parent="1">
          <mxGeometry x="320" y="130" width="120" height="80" as="geometry" />
        </mxCell>
        <mxCell id="UxVpJ3fF8vfEaiCqMQMJ-5" value="&lt;font style=&quot;font-size: 24px;&quot;&gt;series&lt;/font&gt;" style="ellipse;whiteSpace=wrap;html=1;" vertex="1" parent="1">
          <mxGeometry x="90" y="100" width="120" height="80" as="geometry" />
        </mxCell>
        <mxCell id="UxVpJ3fF8vfEaiCqMQMJ-6" value="" style="endArrow=none;html=1;rounded=0;entryX=0;entryY=0.5;entryDx=0;entryDy=0;exitX=0.5;exitY=1;exitDx=0;exitDy=0;" edge="1" parent="1" source="UxVpJ3fF8vfEaiCqMQMJ-2" target="UxVpJ3fF8vfEaiCqMQMJ-1">
          <mxGeometry width="50" height="50" relative="1" as="geometry">
            <mxPoint x="90" y="340" as="sourcePoint" />
            <mxPoint x="140" y="290" as="targetPoint" />
          </mxGeometry>
        </mxCell>
        <mxCell id="UxVpJ3fF8vfEaiCqMQMJ-7" value="" style="endArrow=none;html=1;rounded=0;exitX=0.25;exitY=0;exitDx=0;exitDy=0;entryX=0.5;entryY=1;entryDx=0;entryDy=0;" edge="1" parent="1" source="UxVpJ3fF8vfEaiCqMQMJ-1" target="UxVpJ3fF8vfEaiCqMQMJ-5">
          <mxGeometry width="50" height="50" relative="1" as="geometry">
            <mxPoint x="210" y="200" as="sourcePoint" />
            <mxPoint x="260" y="150" as="targetPoint" />
          </mxGeometry>
        </mxCell>
        <mxCell id="UxVpJ3fF8vfEaiCqMQMJ-8" value="" style="endArrow=none;html=1;rounded=0;exitX=0.5;exitY=0;exitDx=0;exitDy=0;entryX=0.5;entryY=1;entryDx=0;entryDy=0;" edge="1" parent="1" source="UxVpJ3fF8vfEaiCqMQMJ-1" target="UxVpJ3fF8vfEaiCqMQMJ-3">
          <mxGeometry width="50" height="50" relative="1" as="geometry">
            <mxPoint x="230" y="220" as="sourcePoint" />
            <mxPoint x="280" y="170" as="targetPoint" />
          </mxGeometry>
        </mxCell>
        <mxCell id="UxVpJ3fF8vfEaiCqMQMJ-9" value="" style="endArrow=none;html=1;rounded=0;exitX=0.75;exitY=0;exitDx=0;exitDy=0;entryX=0;entryY=1;entryDx=0;entryDy=0;" edge="1" parent="1" source="UxVpJ3fF8vfEaiCqMQMJ-1" target="UxVpJ3fF8vfEaiCqMQMJ-4">
          <mxGeometry width="50" height="50" relative="1" as="geometry">
            <mxPoint x="300" y="230" as="sourcePoint" />
            <mxPoint x="350" y="180" as="targetPoint" />
          </mxGeometry>
        </mxCell>
      </root>
    </mxGraphModel>
  </diagram>
</mxfile>
